<?xml version="1.0" encoding="UTF-8"?>
<svg xmlns="http://www.w3.org/2000/svg" width="1195.0" height="290.7" viewBox="0 0 119.50 29.07" font-family="TeX Gyre Schola, serif">
<style>
  @font-face { font-family: 'Emmentaler'; src: local('Emmentaler'); }
  .music { font-family: 'Emmentaler', serif; }
</style>
  <rect x="0" y="0" width="119.50" height="29.07" fill="#FFFFFF"/>
  <text x="59.75" y="5.69" font-size="3.49" font-weight="bold" text-anchor="middle" data-pos="295">Meter Changes Demo</text>
  <text x="110.97" y="9.18" font-size="2.20" font-style="italic" text-anchor="end" data-pos="325">Lily#</text>
  <g transform="translate(8.54,0.00) scale(1.0000,1.0000)">
  <line x1="0.00" y1="17.84" x2="77.61" y2="17.84" stroke="#000000" stroke-width="0.100"/>
  <line x1="0.00" y1="18.84" x2="77.61" y2="18.84" stroke="#000000" stroke-width="0.100"/>
  <line x1="0.00" y1="19.84" x2="77.61" y2="19.84" stroke="#000000" stroke-width="0.100"/>
  <line x1="0.00" y1="20.84" x2="77.61" y2="20.84" stroke="#000000" stroke-width="0.100"/>
  <line x1="0.00" y1="21.84" x2="77.61" y2="21.84" stroke="#000000" stroke-width="0.100"/>
  <text class="music" x="0.80" y="20.84" font-size="4.00" data-pos="385"></text>
  <text class="music" x="4.19" y="17.84" font-size="4.00" data-pos="357"></text>
  <text class="music" x="6.44" y="19.84" font-size="4.00" data-pos="349"></text>
  <text class="music" x="10.13" y="20.84" font-size="4.00" data-pos="411"></text>
  <line x1="11.37" y1="20.69" x2="11.37" y2="17.34" stroke="#000000" stroke-width="0.130"/>
  <text class="music" x="13.14" y="20.34" font-size="4.00" data-pos="415"></text>
  <line x1="14.38" y1="20.19" x2="14.38" y2="16.84" stroke="#000000" stroke-width="0.130"/>
  <text class="music" x="16.16" y="19.84" font-size="4.00" data-pos="417"></text>
  <line x1="16.22" y1="19.99" x2="16.22" y2="23.18" stroke="#000000" stroke-width="0.130"/>
  <text class="music" x="19.14" y="20.34" font-size="4.00" data-pos="419"></text>
  <line x1="20.38" y1="20.19" x2="20.38" y2="16.84" stroke="#000000" stroke-width="0.130"/>
  <text class="music" x="23.39" y="19.84" font-size="4.00" data-pos="430">3</text>
  <text class="music" x="23.25" y="21.84" font-size="4.00" data-pos="430">4</text>
  <text class="music" x="26.85" y="20.84" font-size="4.00" data-pos="434"></text>
  <line x1="28.09" y1="20.69" x2="28.09" y2="17.34" stroke="#000000" stroke-width="0.130"/>
  <text class="music" x="29.86" y="20.34" font-size="4.00" data-pos="437"></text>
  <line x1="31.10" y1="20.19" x2="31.10" y2="16.84" stroke="#000000" stroke-width="0.130"/>
  <text class="music" x="32.88" y="19.84" font-size="4.00" data-pos="439"></text>
  <line x1="32.94" y1="19.99" x2="32.94" y2="23.18" stroke="#000000" stroke-width="0.130"/>
  <text class="music" x="36.76" y="19.84" font-size="4.00" data-pos="450">2</text>
  <text class="music" x="36.69" y="21.84" font-size="4.00" data-pos="450">4</text>
  <text class="music" x="40.29" y="20.34" font-size="4.00" data-pos="454"></text>
  <line x1="41.53" y1="20.19" x2="41.53" y2="16.84" stroke="#000000" stroke-width="0.130"/>
  <text class="music" x="43.30" y="20.84" font-size="4.00" data-pos="457"></text>
  <line x1="44.54" y1="20.69" x2="44.54" y2="17.34" stroke="#000000" stroke-width="0.130"/>
  <text class="music" x="47.49" y="19.84" font-size="4.00" data-pos="468">6</text>
  <text class="music" x="47.44" y="21.84" font-size="4.00" data-pos="468">8</text>
  <text class="music" x="50.91" y="20.34" font-size="4.00" data-pos="472"></text>
  <text class="music" x="53.01" y="19.84" font-size="4.00" data-pos="475"></text>
  <text class="music" x="55.12" y="20.34" font-size="4.00" data-pos="477"></text>
  <text class="music" x="57.22" y="20.84" font-size="4.00" data-pos="479"></text>
  <text class="music" x="59.32" y="21.34" font-size="4.00" data-pos="481"></text>
  <text class="music" x="61.43" y="21.84" font-size="4.00" data-pos="485"></text>
  <text class="music" x="64.72" y="19.84" font-size="4.00" data-pos="496"></text>
  <text class="music" x="68.42" y="22.34" font-size="4.00" data-pos="500"></text>
  <line x1="69.74" y1="22.34" x2="69.74" y2="18.84" stroke="#000000" stroke-width="0.130"/>
  <text class="music" x="72.95" y="20.84" font-size="4.00" data-pos="503"></text>
  <line x1="74.26" y1="20.84" x2="74.26" y2="17.34" stroke="#000000" stroke-width="0.130"/>
  <rect x="22.31" y="17.84" width="0.19" height="4.00" data-pos="421"/>
  <rect x="35.75" y="17.84" width="0.19" height="4.00" data-pos="441"/>
  <rect x="46.50" y="17.84" width="0.19" height="4.00" data-pos="459"/>
  <rect x="63.78" y="17.84" width="0.19" height="4.00" data-pos="487"/>
  <rect x="77.42" y="17.84" width="0.19" height="4.00" data-pos="505"/>
  <polygon points="52.08,16.79 56.42,16.79 56.42,17.27 52.08,17.27"/>
  <line x1="52.15" y1="20.19" x2="52.15" y2="17.03" stroke="#000000" stroke-width="0.130"/>
  <line x1="54.25" y1="19.69" x2="54.25" y2="17.03" stroke="#000000" stroke-width="0.130"/>
  <line x1="56.36" y1="20.19" x2="56.36" y2="17.03" stroke="#000000" stroke-width="0.130"/>
  <polygon points="58.39,17.79 62.73,18.41 62.73,18.89 58.39,18.27"/>
  <line x1="58.46" y1="20.69" x2="58.46" y2="18.04" stroke="#000000" stroke-width="0.130"/>
  <line x1="60.56" y1="21.19" x2="60.56" y2="18.34" stroke="#000000" stroke-width="0.130"/>
  <line x1="62.67" y1="21.69" x2="62.67" y2="18.64" stroke="#000000" stroke-width="0.130"/>
  <text class="music" x="6.43" y="16.40" font-size="3.56" data-pos="340"></text>
  <line x1="7.54" y1="16.23" x2="7.54" y2="13.72" stroke="#000000" stroke-width="0.116" data-pos="340"/>
  <text x="8.21" y="16.88" font-size="2.20" data-pos="340">= 100</text>
  <rect x="5.29" y="10.66" width="6.20" height="2.60" fill="#FFFFFF" stroke="#000000" stroke-width="0.100" data-pos="510"/>
  <text x="8.39" y="12.86" font-size="2.20" font-weight="bold" text-anchor="middle" data-pos="510">Main</text>
  </g>
</svg>
