<?xml version="1.0" encoding="UTF-8"?>
<svg xmlns="http://www.w3.org/2000/svg" width="1190.5" height="440.1" viewBox="0 0 119.05 44.01" font-family="serif">
<style>
  @font-face { font-family: 'Emmentaler'; src: local('Emmentaler'); }
  .music { font-family: 'Emmentaler', serif; }
</style>
  <text x="59.52" y="5.00" font-size="3.49" font-weight="bold" text-anchor="middle" data-pos="105">Special Techniques</text>
  <text x="110.55" y="8.49" font-size="2.20" font-style="italic" text-anchor="end" data-pos="135">Lily# Showcase</text>
  <g transform="translate(8.50,0.00) scale(1.0000,1.0000)">
  <line x1="0.00" y1="14.81" x2="102.05" y2="14.81" stroke="#000000" stroke-width="0.100"/>
  <line x1="0.00" y1="15.81" x2="102.05" y2="15.81" stroke="#000000" stroke-width="0.100"/>
  <line x1="0.00" y1="16.81" x2="102.05" y2="16.81" stroke="#000000" stroke-width="0.100"/>
  <line x1="0.00" y1="17.81" x2="102.05" y2="17.81" stroke="#000000" stroke-width="0.100"/>
  <line x1="0.00" y1="18.81" x2="102.05" y2="18.81" stroke="#000000" stroke-width="0.100"/>
  <text class="music" x="0.30" y="17.81" font-size="4.00"></text>
  <text class="music" x="3.30" y="16.81" font-size="4.00" data-pos="163"></text>
  <line x1="7.47" y1="19.81" x2="9.43" y2="19.81" stroke="#000000" stroke-width="0.200"/>
  <line x1="24.25" y1="13.81" x2="26.21" y2="13.81" stroke="#000000" stroke-width="0.200"/>
  <line x1="24.25" y1="12.81" x2="26.21" y2="12.81" stroke="#000000" stroke-width="0.200"/>
  <line x1="29.35" y1="19.81" x2="31.31" y2="19.81" stroke="#000000" stroke-width="0.200"/>
  <line x1="31.70" y1="19.81" x2="33.66" y2="19.81" stroke="#000000" stroke-width="0.200"/>
  <line x1="34.05" y1="19.81" x2="36.01" y2="19.81" stroke="#000000" stroke-width="0.200"/>
  <line x1="34.05" y1="20.81" x2="36.01" y2="20.81" stroke="#000000" stroke-width="0.200"/>
  <line x1="36.40" y1="19.81" x2="38.36" y2="19.81" stroke="#000000" stroke-width="0.200"/>
  <line x1="36.40" y1="20.81" x2="38.36" y2="20.81" stroke="#000000" stroke-width="0.200"/>
  <line x1="38.75" y1="19.81" x2="40.71" y2="19.81" stroke="#000000" stroke-width="0.200"/>
  <line x1="38.75" y1="20.81" x2="40.71" y2="20.81" stroke="#000000" stroke-width="0.200"/>
  <line x1="38.75" y1="21.81" x2="40.71" y2="21.81" stroke="#000000" stroke-width="0.200"/>
  <line x1="41.11" y1="19.81" x2="43.06" y2="19.81" stroke="#000000" stroke-width="0.200"/>
  <line x1="41.11" y1="20.81" x2="43.06" y2="20.81" stroke="#000000" stroke-width="0.200"/>
  <line x1="41.11" y1="21.81" x2="43.06" y2="21.81" stroke="#000000" stroke-width="0.200"/>
  <line x1="43.46" y1="19.81" x2="45.41" y2="19.81" stroke="#000000" stroke-width="0.200"/>
  <line x1="43.46" y1="20.81" x2="45.41" y2="20.81" stroke="#000000" stroke-width="0.200"/>
  <line x1="43.46" y1="21.81" x2="45.41" y2="21.81" stroke="#000000" stroke-width="0.200"/>
  <line x1="43.46" y1="22.81" x2="45.41" y2="22.81" stroke="#000000" stroke-width="0.200"/>
  <line x1="45.81" y1="19.81" x2="47.76" y2="19.81" stroke="#000000" stroke-width="0.200"/>
  <line x1="45.81" y1="20.81" x2="47.76" y2="20.81" stroke="#000000" stroke-width="0.200"/>
  <line x1="45.81" y1="21.81" x2="47.76" y2="21.81" stroke="#000000" stroke-width="0.200"/>
  <line x1="45.81" y1="22.81" x2="47.76" y2="22.81" stroke="#000000" stroke-width="0.200"/>
  <line x1="50.91" y1="19.81" x2="52.87" y2="19.81" stroke="#000000" stroke-width="0.200"/>
  <text class="music" x="7.80" y="19.81" font-size="4.00" data-pos="222"></text>
  <text class="music" x="10.15" y="19.31" font-size="4.00" data-pos="296"></text>
  <text class="music" x="12.50" y="18.81" font-size="4.00" data-pos="298"></text>
  <text class="music" x="14.85" y="18.31" font-size="4.00" data-pos="300"></text>
  <text class="music" x="17.27" y="17.81" font-size="4.00" data-pos="302"></text>
  <text class="music" x="19.62" y="17.31" font-size="4.00" data-pos="304"></text>
  <text class="music" x="21.98" y="16.81" font-size="4.00" data-pos="306"></text>
  <text class="music" x="24.58" y="12.81" font-size="4.00" data-pos="308"></text>
  <text class="music" x="29.68" y="19.81" font-size="4.00" data-pos="338"></text>
  <text class="music" x="32.03" y="20.31" font-size="4.00" data-pos="410"></text>
  <text class="music" x="34.38" y="20.81" font-size="4.00" data-pos="412"></text>
  <text class="music" x="36.73" y="21.31" font-size="4.00" data-pos="414"></text>
  <text class="music" x="39.08" y="21.81" font-size="4.00" data-pos="416"></text>
  <text class="music" x="41.43" y="22.31" font-size="4.00" data-pos="418"></text>
  <text class="music" x="43.78" y="22.81" font-size="4.00" data-pos="420"></text>
  <text class="music" x="46.13" y="23.31" font-size="4.00" data-pos="422"></text>
  <text class="music" x="51.24" y="19.81" font-size="4.00" data-pos="514"></text>
  <line x1="52.47" y1="19.66" x2="52.47" y2="16.31" stroke="#000000" stroke-width="0.130"/>
  <text class="music" x="52.47" y="16.31" font-size="4.00"></text>
  <text class="music" x="53.93" y="19.31" font-size="4.00" data-pos="530"></text>
  <text class="music" x="56.17" y="18.81" font-size="4.00" data-pos="533"></text>
  <text class="music" x="58.40" y="18.31" font-size="4.00" data-pos="535"></text>
  <text class="music" x="60.64" y="17.81" font-size="4.00" data-pos="539"></text>
  <line x1="61.88" y1="17.66" x2="61.88" y2="14.31" stroke="#000000" stroke-width="0.130"/>
  <text class="music" x="61.88" y="14.31" font-size="4.00"></text>
  <text class="music" x="63.34" y="17.31" font-size="4.00" data-pos="543"></text>
  <line x1="64.58" y1="17.16" x2="64.58" y2="13.81" stroke="#000000" stroke-width="0.130"/>
  <text class="music" x="69.08" y="17.81" font-size="4.00" data-pos="546"></text>
  <line x1="70.32" y1="17.66" x2="70.32" y2="14.31" stroke="#000000" stroke-width="0.130"/>
  <text class="music" x="77.58" y="18.81" font-size="4.00" data-pos="565"></text>
  <line x1="78.82" y1="18.66" x2="78.82" y2="15.31" stroke="#000000" stroke-width="0.130"/>
  <text class="music" x="78.82" y="15.31" font-size="4.00"></text>
  <text class="music" x="80.28" y="18.31" font-size="4.00" data-pos="581"></text>
  <text class="music" x="82.52" y="17.81" font-size="4.00" data-pos="584"></text>
  <text class="music" x="84.75" y="17.31" font-size="4.00" data-pos="586"></text>
  <text class="music" x="87.06" y="16.81" font-size="4.00" data-pos="590"></text>
  <line x1="87.12" y1="16.96" x2="87.12" y2="20.31" stroke="#000000" stroke-width="0.130"/>
  <text class="music" x="87.12" y="20.31" font-size="4.00"></text>
  <text class="music" x="89.76" y="16.31" font-size="4.00" data-pos="594"></text>
  <line x1="89.82" y1="16.46" x2="89.82" y2="19.81" stroke="#000000" stroke-width="0.130"/>
  <text class="music" x="95.50" y="16.81" font-size="4.00" data-pos="597"></text>
  <line x1="95.57" y1="16.96" x2="95.57" y2="20.31" stroke="#000000" stroke-width="0.130"/>
  <rect x="27.54" y="14.81" width="0.19" height="4.00"/>
  <rect x="49.09" y="14.81" width="0.19" height="4.00"/>
  <rect x="75.44" y="14.81" width="0.19" height="4.00"/>
  <rect x="101.86" y="14.81" width="0.19" height="4.00"/>
  <line x1="8.97" y1="15.82" x2="16.16" y2="15.00" stroke="#000000" stroke-width="0.480"/>
  <line x1="8.97" y1="16.63" x2="11.39" y2="16.35" stroke="#000000" stroke-width="0.480"/>
  <line x1="11.39" y1="16.35" x2="13.74" y2="16.08" stroke="#000000" stroke-width="0.480"/>
  <line x1="13.74" y1="16.08" x2="16.16" y2="15.81" stroke="#000000" stroke-width="0.480"/>
  <line x1="9.04" y1="19.66" x2="9.04" y2="15.81" stroke="#000000" stroke-width="0.130"/>
  <line x1="11.39" y1="19.16" x2="11.39" y2="15.54" stroke="#000000" stroke-width="0.130"/>
  <line x1="13.74" y1="18.66" x2="13.74" y2="15.27" stroke="#000000" stroke-width="0.130"/>
  <line x1="16.09" y1="18.16" x2="16.09" y2="15.00" stroke="#000000" stroke-width="0.130"/>
  <line x1="17.27" y1="21.33" x2="24.71" y2="19.80" stroke="#000000" stroke-width="0.480"/>
  <line x1="17.27" y1="20.52" x2="19.69" y2="20.02" stroke="#000000" stroke-width="0.480"/>
  <line x1="19.69" y1="20.02" x2="22.04" y2="19.54" stroke="#000000" stroke-width="0.480"/>
  <line x1="22.04" y1="19.54" x2="24.71" y2="18.99" stroke="#000000" stroke-width="0.480"/>
  <line x1="17.34" y1="17.96" x2="17.34" y2="21.31" stroke="#000000" stroke-width="0.130"/>
  <line x1="19.69" y1="17.46" x2="19.69" y2="20.83" stroke="#000000" stroke-width="0.130"/>
  <line x1="22.04" y1="16.96" x2="22.04" y2="20.35" stroke="#000000" stroke-width="0.130"/>
  <line x1="24.64" y1="12.96" x2="24.64" y2="19.81" stroke="#000000" stroke-width="0.130"/>
  <line x1="30.85" y1="16.81" x2="38.03" y2="17.00" stroke="#000000" stroke-width="0.480"/>
  <line x1="30.85" y1="17.62" x2="33.27" y2="17.69" stroke="#000000" stroke-width="0.480"/>
  <line x1="33.27" y1="17.69" x2="35.62" y2="17.75" stroke="#000000" stroke-width="0.480"/>
  <line x1="35.62" y1="17.75" x2="38.03" y2="17.81" stroke="#000000" stroke-width="0.480"/>
  <line x1="30.92" y1="19.66" x2="30.92" y2="16.81" stroke="#000000" stroke-width="0.130"/>
  <line x1="33.27" y1="20.16" x2="33.27" y2="16.88" stroke="#000000" stroke-width="0.130"/>
  <line x1="35.62" y1="20.66" x2="35.62" y2="16.94" stroke="#000000" stroke-width="0.130"/>
  <line x1="37.97" y1="21.16" x2="37.97" y2="17.00" stroke="#000000" stroke-width="0.130"/>
  <line x1="40.25" y1="16.81" x2="47.44" y2="16.81" stroke="#000000" stroke-width="0.480"/>
  <line x1="40.25" y1="17.62" x2="42.67" y2="17.62" stroke="#000000" stroke-width="0.480"/>
  <line x1="42.67" y1="17.62" x2="45.02" y2="17.62" stroke="#000000" stroke-width="0.480"/>
  <line x1="45.02" y1="17.62" x2="47.44" y2="17.62" stroke="#000000" stroke-width="0.480"/>
  <line x1="40.32" y1="21.66" x2="40.32" y2="16.81" stroke="#000000" stroke-width="0.130"/>
  <line x1="42.67" y1="22.16" x2="42.67" y2="16.81" stroke="#000000" stroke-width="0.130"/>
  <line x1="45.02" y1="22.66" x2="45.02" y2="16.81" stroke="#000000" stroke-width="0.130"/>
  <line x1="47.37" y1="23.16" x2="47.37" y2="16.81" stroke="#000000" stroke-width="0.130"/>
  <line x1="55.11" y1="16.01" x2="59.71" y2="15.62" stroke="#000000" stroke-width="0.480"/>
  <line x1="55.17" y1="19.16" x2="55.17" y2="16.00" stroke="#000000" stroke-width="0.130"/>
  <line x1="57.41" y1="18.66" x2="57.41" y2="15.81" stroke="#000000" stroke-width="0.130"/>
  <line x1="59.64" y1="18.16" x2="59.64" y2="15.62" stroke="#000000" stroke-width="0.130"/>
  <line x1="81.46" y1="15.01" x2="86.05" y2="14.62" stroke="#000000" stroke-width="0.480"/>
  <line x1="81.52" y1="18.16" x2="81.52" y2="15.00" stroke="#000000" stroke-width="0.130"/>
  <line x1="83.76" y1="17.66" x2="83.76" y2="14.81" stroke="#000000" stroke-width="0.130"/>
  <line x1="85.99" y1="17.16" x2="85.99" y2="14.62" stroke="#000000" stroke-width="0.130"/>
  <line x1="0.00" y1="33.51" x2="102.05" y2="33.51" stroke="#000000" stroke-width="0.100"/>
  <line x1="0.00" y1="34.51" x2="102.05" y2="34.51" stroke="#000000" stroke-width="0.100"/>
  <line x1="0.00" y1="35.51" x2="102.05" y2="35.51" stroke="#000000" stroke-width="0.100"/>
  <line x1="0.00" y1="36.51" x2="102.05" y2="36.51" stroke="#000000" stroke-width="0.100"/>
  <line x1="0.00" y1="37.51" x2="102.05" y2="37.51" stroke="#000000" stroke-width="0.100"/>
  <text class="music" x="0.30" y="36.51" font-size="4.00"></text>
  <line x1="7.24" y1="38.51" x2="9.19" y2="38.51" stroke="#000000" stroke-width="0.200"/>
  <line x1="76.13" y1="38.51" x2="78.08" y2="38.51" stroke="#000000" stroke-width="0.200"/>
  <line x1="79.17" y1="38.51" x2="81.12" y2="38.51" stroke="#000000" stroke-width="0.200"/>
  <line x1="82.21" y1="38.51" x2="84.16" y2="38.51" stroke="#000000" stroke-width="0.200"/>
  <line x1="85.32" y1="32.51" x2="87.28" y2="32.51" stroke="#000000" stroke-width="0.200"/>
  <line x1="85.32" y1="31.51" x2="87.28" y2="31.51" stroke="#000000" stroke-width="0.200"/>
  <line x1="91.40" y1="32.51" x2="93.36" y2="32.51" stroke="#000000" stroke-width="0.200"/>
  <line x1="91.40" y1="31.51" x2="93.36" y2="31.51" stroke="#000000" stroke-width="0.200"/>
  <line x1="91.40" y1="30.51" x2="93.36" y2="30.51" stroke="#000000" stroke-width="0.200"/>
  <line x1="91.40" y1="29.51" x2="93.36" y2="29.51" stroke="#000000" stroke-width="0.200"/>
  <line x1="91.40" y1="28.51" x2="93.36" y2="28.51" stroke="#000000" stroke-width="0.200"/>
  <line x1="94.19" y1="32.51" x2="96.15" y2="32.51" stroke="#000000" stroke-width="0.200"/>
  <line x1="94.19" y1="31.51" x2="96.15" y2="31.51" stroke="#000000" stroke-width="0.200"/>
  <line x1="97.48" y1="32.51" x2="99.44" y2="32.51" stroke="#000000" stroke-width="0.200"/>
  <line x1="97.48" y1="31.51" x2="99.44" y2="31.51" stroke="#000000" stroke-width="0.200"/>
  <line x1="97.48" y1="30.51" x2="99.44" y2="30.51" stroke="#000000" stroke-width="0.200"/>
  <line x1="97.48" y1="29.51" x2="99.44" y2="29.51" stroke="#000000" stroke-width="0.200"/>
  <line x1="97.48" y1="28.51" x2="99.44" y2="28.51" stroke="#000000" stroke-width="0.200"/>
  <line x1="97.48" y1="27.51" x2="99.44" y2="27.51" stroke="#000000" stroke-width="0.200"/>
  <line x1="97.48" y1="26.51" x2="99.44" y2="26.51" stroke="#000000" stroke-width="0.200"/>
  <line x1="97.48" y1="25.51" x2="99.44" y2="25.51" stroke="#000000" stroke-width="0.200"/>
  <line x1="97.48" y1="24.51" x2="99.44" y2="24.51" stroke="#000000" stroke-width="0.200"/>
  <text class="music" x="7.56" y="38.51" font-size="4.00" data-pos="697"></text>
  <line x1="8.80" y1="38.36" x2="8.80" y2="35.01" stroke="#000000" stroke-width="0.130"/>
  <text class="music" x="12.80" y="37.51" font-size="4.00" data-pos="700"></text>
  <line x1="14.04" y1="37.36" x2="14.04" y2="34.01" stroke="#000000" stroke-width="0.130"/>
  <text class="music" x="18.04" y="36.51" font-size="4.00" data-pos="702"></text>
  <line x1="19.28" y1="36.36" x2="19.28" y2="33.01" stroke="#000000" stroke-width="0.130"/>
  <text class="music" x="22.78" y="37.51" font-size="4.00" data-pos="704"></text>
  <line x1="24.02" y1="37.36" x2="24.02" y2="34.01" stroke="#000000" stroke-width="0.130"/>
  <text class="music" x="53.49" y="38.01" font-size="4.00" data-pos="710"></text>
  <line x1="54.73" y1="37.86" x2="54.73" y2="34.51" stroke="#000000" stroke-width="0.130"/>
  <text class="music" x="58.73" y="37.01" font-size="4.00" data-pos="715"></text>
  <line x1="59.97" y1="36.86" x2="59.97" y2="33.51" stroke="#000000" stroke-width="0.130"/>
  <text class="music" x="63.97" y="36.01" font-size="4.00" data-pos="717"></text>
  <line x1="65.21" y1="35.86" x2="65.21" y2="32.51" stroke="#000000" stroke-width="0.130"/>
  <text class="music" x="68.71" y="37.01" font-size="4.00" data-pos="719"></text>
  <line x1="69.95" y1="36.86" x2="69.95" y2="33.51" stroke="#000000" stroke-width="0.130"/>
  <text class="music" x="76.45" y="38.51" font-size="4.00" data-pos="745"></text>
  <text class="music" x="79.49" y="38.51" font-size="4.00" data-pos="801"></text>
  <text class="music" x="82.53" y="38.51" font-size="4.00" data-pos="803"></text>
  <text class="music" x="85.65" y="31.51" font-size="4.00" data-pos="805"></text>
  <text class="music" x="88.44" y="35.01" font-size="4.00" data-pos="809"></text>
  <text class="music" x="91.73" y="28.01" font-size="4.00" data-pos="812"></text>
  <text class="music" x="94.52" y="31.51" font-size="4.00" data-pos="816"></text>
  <text class="music" x="97.81" y="24.51" font-size="4.00" data-pos="819"></text>
  <rect x="28.38" y="33.51" width="0.19" height="4.00"/>
  <rect x="51.35" y="33.51" width="0.19" height="4.00"/>
  <rect x="74.31" y="33.51" width="0.19" height="4.00"/>
  <rect x="100.96" y="33.51" width="0.19" height="4.00"/>
  <rect x="101.45" y="33.51" width="0.60" height="4.00"/>
  <line x1="77.63" y1="35.32" x2="85.78" y2="34.69" stroke="#000000" stroke-width="0.480"/>
  <line x1="77.69" y1="38.36" x2="77.69" y2="35.32" stroke="#000000" stroke-width="0.130"/>
  <line x1="80.73" y1="38.36" x2="80.73" y2="35.08" stroke="#000000" stroke-width="0.130"/>
  <line x1="83.77" y1="38.36" x2="83.77" y2="34.85" stroke="#000000" stroke-width="0.130"/>
  <line x1="85.71" y1="31.66" x2="85.71" y2="34.70" stroke="#000000" stroke-width="0.130"/>
  <line x1="88.44" y1="37.52" x2="97.94" y2="36.31" stroke="#000000" stroke-width="0.480"/>
  <line x1="88.50" y1="35.16" x2="88.50" y2="37.51" stroke="#000000" stroke-width="0.130"/>
  <line x1="91.79" y1="28.16" x2="91.79" y2="37.09" stroke="#000000" stroke-width="0.130"/>
  <line x1="94.58" y1="31.66" x2="94.58" y2="36.73" stroke="#000000" stroke-width="0.130"/>
  <line x1="97.87" y1="24.66" x2="97.87" y2="36.32" stroke="#000000" stroke-width="0.130"/>
  <text x="57.41" y="14.81" font-size="2.40" font-weight="bold" text-anchor="middle" data-pos="517">3</text>
  <line x1="52.41" y1="13.21" x2="52.41" y2="13.91" stroke="#000000" stroke-width="0.130" data-pos="451"/>
  <line x1="52.41" y1="13.21" x2="56.18" y2="13.02" stroke="#000000" stroke-width="0.130" data-pos="451"/>
  <line x1="58.18" y1="12.91" x2="61.94" y2="12.71" stroke="#000000" stroke-width="0.130" data-pos="451"/>
  <line x1="61.94" y1="12.71" x2="61.94" y2="13.41" stroke="#000000" stroke-width="0.130" data-pos="451"/>
  <text x="57.18" y="12.66" font-size="2.40" font-weight="bold" text-anchor="middle" data-pos="451">3</text>
  <text x="83.76" y="13.81" font-size="2.40" font-weight="bold" text-anchor="middle" data-pos="568">3</text>
  <line x1="78.76" y1="12.21" x2="78.76" y2="12.91" stroke="#000000" stroke-width="0.130" data-pos="550"/>
  <line x1="78.76" y1="12.21" x2="82.56" y2="12.02" stroke="#000000" stroke-width="0.130" data-pos="550"/>
  <line x1="84.56" y1="11.91" x2="88.36" y2="11.71" stroke="#000000" stroke-width="0.130" data-pos="550"/>
  <line x1="88.36" y1="11.71" x2="88.36" y2="12.41" stroke="#000000" stroke-width="0.130" data-pos="550"/>
  <text x="83.56" y="11.66" font-size="2.40" font-weight="bold" text-anchor="middle" data-pos="550">3</text>
  <line x1="39.06" y1="36.51" x2="41.06" y2="34.51" stroke="#000000" stroke-width="0.480" data-pos="627"/>
  <circle cx="39.56" cy="35.01" r="0.25" data-pos="627"/>
  <circle cx="40.56" cy="36.01" r="0.25" data-pos="627"/>
  <text x="0.05" y="31.27" font-size="1.75" font-weight="bold">5</text>
  <text class="music" x="0.80" y="12.07" font-size="1.60" data-pos="0"></text>
  <line x1="1.31" y1="12.07" x2="1.31" y2="10.67" stroke="#000000" stroke-width="0.100" data-pos="0"/>
  <text x="1.90" y="12.07" font-size="1.80" data-pos="0">= 120</text>
  </g>
</svg>
