<?xml version="1.0" encoding="UTF-8"?>
<svg xmlns="http://www.w3.org/2000/svg" width="1190.5" height="392.3" viewBox="0 0 119.05 39.23" font-family="serif">
<style>
  @font-face { font-family: 'Emmentaler'; src: local('Emmentaler'); }
  .music { font-family: 'Emmentaler', serif; }
</style>
  <text x="59.52" y="5.00" font-size="3.49" font-weight="bold" text-anchor="middle" data-pos="105">Key Signature Changes</text>
  <text x="110.55" y="8.49" font-size="2.20" font-style="italic" text-anchor="end" data-pos="138">Lily#</text>
  <g transform="translate(8.50,0.00) scale(1.0000,1.0000)">
  <line x1="0.00" y1="15.63" x2="102.05" y2="15.63" stroke="#000000" stroke-width="0.100"/>
  <line x1="0.00" y1="16.63" x2="102.05" y2="16.63" stroke="#000000" stroke-width="0.100"/>
  <line x1="0.00" y1="17.63" x2="102.05" y2="17.63" stroke="#000000" stroke-width="0.100"/>
  <line x1="0.00" y1="18.63" x2="102.05" y2="18.63" stroke="#000000" stroke-width="0.100"/>
  <line x1="0.00" y1="19.63" x2="102.05" y2="19.63" stroke="#000000" stroke-width="0.100"/>
  <text class="music" x="0.30" y="18.63" font-size="4.00" data-pos="211"></text>
  <text class="music" x="3.30" y="15.63" font-size="4.00" data-pos="166"></text>
  <text class="music" x="4.80" y="17.63" font-size="4.00" data-pos="157"></text>
  <line x1="8.91" y1="20.63" x2="10.86" y2="20.63" stroke="#000000" stroke-width="0.200"/>
  <line x1="8.91" y1="21.63" x2="10.86" y2="21.63" stroke="#000000" stroke-width="0.200"/>
  <line x1="12.23" y1="20.63" x2="14.19" y2="20.63" stroke="#000000" stroke-width="0.200"/>
  <line x1="12.23" y1="21.63" x2="14.19" y2="21.63" stroke="#000000" stroke-width="0.200"/>
  <line x1="15.55" y1="20.63" x2="17.51" y2="20.63" stroke="#000000" stroke-width="0.200"/>
  <line x1="40.84" y1="20.63" x2="42.79" y2="20.63" stroke="#000000" stroke-width="0.200"/>
  <line x1="71.35" y1="20.63" x2="73.30" y2="20.63" stroke="#000000" stroke-width="0.200"/>
  <text class="music" x="9.23" y="22.13" font-size="4.00" data-pos="307"></text>
  <line x1="10.47" y1="21.98" x2="10.47" y2="17.63" stroke="#000000" stroke-width="0.130"/>
  <text class="music" x="12.56" y="21.63" font-size="4.00" data-pos="310"></text>
  <line x1="13.79" y1="21.48" x2="13.79" y2="17.63" stroke="#000000" stroke-width="0.130"/>
  <text class="music" x="15.88" y="21.13" font-size="4.00" data-pos="312"></text>
  <line x1="17.12" y1="20.98" x2="17.12" y2="17.63" stroke="#000000" stroke-width="0.130"/>
  <text class="music" x="19.63" y="17.13" font-size="4.00" data-pos="314"></text>
  <line x1="19.69" y1="17.28" x2="19.69" y2="20.63" stroke="#000000" stroke-width="0.130"/>
  <text class="music" x="24.12" y="16.63" font-size="4.00" data-pos="319"></text>
  <line x1="24.18" y1="16.78" x2="24.18" y2="20.13" stroke="#000000" stroke-width="0.130"/>
  <text class="music" x="27.44" y="16.13" font-size="4.00" data-pos="322"></text>
  <line x1="27.50" y1="16.28" x2="27.50" y2="19.63" stroke="#000000" stroke-width="0.130"/>
  <text class="music" x="30.09" y="15.63" font-size="4.00" data-pos="324"></text>
  <text class="music" x="32.26" y="15.63" font-size="4.00" data-pos="336"></text>
  <text class="music" x="33.56" y="15.63" font-size="4.00" data-pos="336"></text>
  <line x1="33.63" y1="15.78" x2="33.63" y2="19.13" stroke="#000000" stroke-width="0.130"/>
  <text class="music" x="36.88" y="15.13" font-size="4.00" data-pos="341"></text>
  <line x1="36.95" y1="15.28" x2="36.95" y2="18.63" stroke="#000000" stroke-width="0.130"/>
  <text class="music" x="41.16" y="20.63" font-size="4.00" data-pos="345"></text>
  <line x1="42.40" y1="20.48" x2="42.40" y2="17.13" stroke="#000000" stroke-width="0.130"/>
  <text class="music" x="44.48" y="20.13" font-size="4.00" data-pos="350"></text>
  <line x1="45.72" y1="19.98" x2="45.72" y2="16.63" stroke="#000000" stroke-width="0.130"/>
  <text class="music" x="47.81" y="19.63" font-size="4.00" data-pos="352"></text>
  <line x1="49.05" y1="19.48" x2="49.05" y2="16.13" stroke="#000000" stroke-width="0.130"/>
  <text class="music" x="51.13" y="19.13" font-size="4.00" data-pos="354"></text>
  <line x1="52.37" y1="18.98" x2="52.37" y2="15.63" stroke="#000000" stroke-width="0.130"/>
  <text class="music" x="55.86" y="18.63" font-size="4.00" data-pos="358"></text>
  <line x1="57.10" y1="18.48" x2="57.10" y2="15.13" stroke="#000000" stroke-width="0.130"/>
  <text class="music" x="59.18" y="18.13" font-size="4.00" data-pos="361"></text>
  <line x1="60.42" y1="17.98" x2="60.42" y2="14.63" stroke="#000000" stroke-width="0.130"/>
  <text class="music" x="62.52" y="17.63" font-size="4.00" data-pos="363"></text>
  <line x1="62.59" y1="17.78" x2="62.59" y2="21.13" stroke="#000000" stroke-width="0.130"/>
  <text class="music" x="65.84" y="17.13" font-size="4.00" data-pos="365"></text>
  <line x1="65.91" y1="17.28" x2="65.91" y2="20.63" stroke="#000000" stroke-width="0.130"/>
  <text class="music" x="69.69" y="15.63" font-size="4.00"></text>
  <text class="music" x="71.67" y="20.63" font-size="4.00" data-pos="451"></text>
  <line x1="72.91" y1="20.48" x2="72.91" y2="17.13" stroke="#000000" stroke-width="0.130"/>
  <text class="music" x="74.99" y="20.13" font-size="4.00" data-pos="454"></text>
  <line x1="76.23" y1="19.98" x2="76.23" y2="16.63" stroke="#000000" stroke-width="0.130"/>
  <text class="music" x="78.32" y="19.63" font-size="4.00" data-pos="456"></text>
  <line x1="79.55" y1="19.48" x2="79.55" y2="16.13" stroke="#000000" stroke-width="0.130"/>
  <text class="music" x="80.77" y="19.13" font-size="4.00" data-pos="458"></text>
  <text class="music" x="81.64" y="19.13" font-size="4.00" data-pos="458"></text>
  <line x1="82.88" y1="18.98" x2="82.88" y2="15.63" stroke="#000000" stroke-width="0.130"/>
  <text class="music" x="85.89" y="15.63" font-size="4.00" data-pos="462"></text>
  <text class="music" x="86.95" y="17.63" font-size="4.00"></text>
  <text class="music" x="88.36" y="17.63" font-size="4.00" data-pos="474"></text>
  <line x1="88.42" y1="17.78" x2="88.42" y2="21.13" stroke="#000000" stroke-width="0.130"/>
  <text class="music" x="91.66" y="18.13" font-size="4.00" data-pos="479"></text>
  <line x1="92.90" y1="17.98" x2="92.90" y2="14.63" stroke="#000000" stroke-width="0.130"/>
  <text class="music" x="94.98" y="18.63" font-size="4.00" data-pos="481"></text>
  <line x1="96.22" y1="18.48" x2="96.22" y2="15.13" stroke="#000000" stroke-width="0.130"/>
  <text class="music" x="98.30" y="19.13" font-size="4.00" data-pos="483"></text>
  <line x1="99.54" y1="18.98" x2="99.54" y2="15.63" stroke="#000000" stroke-width="0.130"/>
  <rect x="22.78" y="15.63" width="0.19" height="4.00" data-pos="317"/>
  <rect x="39.99" y="15.63" width="0.19" height="4.00" data-pos="343"/>
  <rect x="54.69" y="15.63" width="0.19" height="4.00" data-pos="356"/>
  <rect x="69.00" y="15.63" width="0.19" height="4.00" data-pos="367"/>
  <rect x="85.20" y="15.63" width="0.19" height="4.00" data-pos="460"/>
  <rect x="101.86" y="15.63" width="0.19" height="4.00" data-pos="485"/>
  <line x1="0.00" y1="28.73" x2="102.05" y2="28.73" stroke="#000000" stroke-width="0.100"/>
  <line x1="0.00" y1="29.73" x2="102.05" y2="29.73" stroke="#000000" stroke-width="0.100"/>
  <line x1="0.00" y1="30.73" x2="102.05" y2="30.73" stroke="#000000" stroke-width="0.100"/>
  <line x1="0.00" y1="31.73" x2="102.05" y2="31.73" stroke="#000000" stroke-width="0.100"/>
  <line x1="0.00" y1="32.73" x2="102.05" y2="32.73" stroke="#000000" stroke-width="0.100"/>
  <text class="music" x="0.30" y="31.73" font-size="4.00"></text>
  <text class="music" x="3.30" y="30.73" font-size="4.00"></text>
  <line x1="88.42" y1="27.73" x2="90.37" y2="27.73" stroke="#000000" stroke-width="0.200"/>
  <line x1="88.42" y1="26.73" x2="90.37" y2="26.73" stroke="#000000" stroke-width="0.200"/>
  <line x1="92.54" y1="27.73" x2="94.49" y2="27.73" stroke="#000000" stroke-width="0.200"/>
  <line x1="92.54" y1="26.73" x2="94.49" y2="26.73" stroke="#000000" stroke-width="0.200"/>
  <line x1="96.66" y1="27.73" x2="98.61" y2="27.73" stroke="#000000" stroke-width="0.200"/>
  <line x1="96.66" y1="26.73" x2="98.61" y2="26.73" stroke="#000000" stroke-width="0.200"/>
  <line x1="96.66" y1="25.73" x2="98.61" y2="25.73" stroke="#000000" stroke-width="0.200"/>
  <text class="music" x="6.80" y="30.23" font-size="4.00" data-pos="487"></text>
  <line x1="6.87" y1="30.38" x2="6.87" y2="33.73" stroke="#000000" stroke-width="0.130"/>
  <text class="music" x="10.92" y="29.73" font-size="4.00" data-pos="491"></text>
  <line x1="10.99" y1="29.88" x2="10.99" y2="33.23" stroke="#000000" stroke-width="0.130"/>
  <text class="music" x="15.04" y="29.23" font-size="4.00" data-pos="493"></text>
  <line x1="15.11" y1="29.38" x2="15.11" y2="32.73" stroke="#000000" stroke-width="0.130"/>
  <text class="music" x="19.17" y="28.73" font-size="4.00" data-pos="495"></text>
  <line x1="19.23" y1="28.88" x2="19.23" y2="32.23" stroke="#000000" stroke-width="0.130"/>
  <text class="music" x="23.74" y="30.73" font-size="4.00" data-pos="730"></text>
  <text class="music" x="24.81" y="28.73" font-size="4.00"></text>
  <text class="music" x="26.60" y="31.73" font-size="4.00" data-pos="591"></text>
  <line x1="27.84" y1="31.58" x2="27.84" y2="28.23" stroke="#000000" stroke-width="0.130"/>
  <text class="music" x="30.72" y="31.23" font-size="4.00" data-pos="595"></text>
  <line x1="31.96" y1="31.08" x2="31.96" y2="27.73" stroke="#000000" stroke-width="0.130"/>
  <text class="music" x="34.86" y="30.73" font-size="4.00" data-pos="597"></text>
  <line x1="34.93" y1="30.88" x2="34.93" y2="34.23" stroke="#000000" stroke-width="0.130"/>
  <text class="music" x="38.98" y="30.23" font-size="4.00" data-pos="599"></text>
  <line x1="39.05" y1="30.38" x2="39.05" y2="33.73" stroke="#000000" stroke-width="0.130"/>
  <text class="music" x="43.63" y="28.73" font-size="4.00" data-pos="603"></text>
  <text class="music" x="44.69" y="30.73" font-size="4.00"></text>
  <text class="music" x="45.61" y="29.23" font-size="4.00"></text>
  <text class="music" x="46.53" y="31.23" font-size="4.00"></text>
  <text class="music" x="48.15" y="30.73" font-size="4.00" data-pos="617"></text>
  <line x1="48.21" y1="30.88" x2="48.21" y2="34.23" stroke="#000000" stroke-width="0.130"/>
  <text class="music" x="52.25" y="31.23" font-size="4.00" data-pos="622"></text>
  <line x1="53.49" y1="31.08" x2="53.49" y2="27.73" stroke="#000000" stroke-width="0.130"/>
  <text class="music" x="56.37" y="31.73" font-size="4.00" data-pos="626"></text>
  <line x1="57.61" y1="31.58" x2="57.61" y2="28.23" stroke="#000000" stroke-width="0.130"/>
  <text class="music" x="60.49" y="32.23" font-size="4.00" data-pos="628"></text>
  <line x1="61.73" y1="32.08" x2="61.73" y2="28.73" stroke="#000000" stroke-width="0.130"/>
  <text class="music" x="66.23" y="32.73" font-size="4.00" data-pos="632"></text>
  <line x1="67.47" y1="32.58" x2="67.47" y2="29.23" stroke="#000000" stroke-width="0.130"/>
  <text class="music" x="70.36" y="32.23" font-size="4.00" data-pos="637"></text>
  <line x1="71.59" y1="32.08" x2="71.59" y2="28.73" stroke="#000000" stroke-width="0.130"/>
  <text class="music" x="74.48" y="31.73" font-size="4.00" data-pos="639"></text>
  <line x1="75.71" y1="31.58" x2="75.71" y2="28.23" stroke="#000000" stroke-width="0.130"/>
  <text class="music" x="78.60" y="31.23" font-size="4.00" data-pos="641"></text>
  <line x1="79.83" y1="31.08" x2="79.83" y2="27.73" stroke="#000000" stroke-width="0.130"/>
  <text class="music" x="84.37" y="30.73" font-size="4.00" data-pos="647"></text>
  <line x1="84.44" y1="30.88" x2="84.44" y2="34.23" stroke="#000000" stroke-width="0.130"/>
  <text class="music" x="88.74" y="26.73" font-size="4.00" data-pos="652"></text>
  <line x1="88.81" y1="26.88" x2="88.81" y2="30.73" stroke="#000000" stroke-width="0.130"/>
  <text class="music" x="92.86" y="26.23" font-size="4.00" data-pos="655"></text>
  <line x1="92.93" y1="26.38" x2="92.93" y2="30.73" stroke="#000000" stroke-width="0.130"/>
  <text class="music" x="96.98" y="25.73" font-size="4.00" data-pos="657"></text>
  <line x1="97.05" y1="25.88" x2="97.05" y2="30.73" stroke="#000000" stroke-width="0.130"/>
  <rect x="23.05" y="28.73" width="0.19" height="4.00" data-pos="497"/>
  <rect x="42.94" y="28.73" width="0.19" height="4.00" data-pos="601"/>
  <rect x="64.85" y="28.73" width="0.19" height="4.00" data-pos="630"/>
  <rect x="82.88" y="28.73" width="0.19" height="4.00" data-pos="645"/>
  <rect x="100.96" y="28.73" width="0.19" height="4.00" data-pos="661"/>
  <rect x="101.45" y="28.73" width="0.60" height="4.00" data-pos="661"/>
  <text x="0.05" y="26.47" font-size="1.75" font-weight="bold">7</text>
  <rect x="0.30" y="10.77" width="1.99" height="2.60" fill="#FFFFFF" stroke="#000000" stroke-width="0.100" data-pos="666"/>
  <text x="1.29" y="12.97" font-size="2.20" font-weight="bold" text-anchor="middle" data-pos="666">A</text>
  <text class="music" x="3.09" y="12.97" font-size="1.60" data-pos="0"></text>
  <line x1="3.60" y1="12.97" x2="3.60" y2="11.57" stroke="#000000" stroke-width="0.100" data-pos="0"/>
  <text x="4.19" y="12.97" font-size="1.80" data-pos="0">= 120</text>
  <rect x="69.19" y="11.83" width="1.87" height="2.60" fill="#FFFFFF" stroke="#000000" stroke-width="0.100" data-pos="694"/>
  <text x="70.12" y="14.03" font-size="2.20" font-weight="bold" text-anchor="middle" data-pos="694">B</text>
  <rect x="23.24" y="24.93" width="1.99" height="2.60" fill="#FFFFFF" stroke="#000000" stroke-width="0.100" data-pos="722"/>
  <text x="24.23" y="27.13" font-size="2.20" font-weight="bold" text-anchor="middle" data-pos="722">C</text>
  </g>
</svg>
