<?xml version="1.0" encoding="UTF-8"?>
<svg xmlns="http://www.w3.org/2000/svg" width="1195.0" height="314.9" viewBox="0 0 119.50 31.49" font-family="TeX Gyre Schola, serif">
<style>
  @font-face { font-family: 'Emmentaler'; src: local('Emmentaler'); }
  .music { font-family: 'Emmentaler', serif; }
</style>
  <rect x="0" y="0" width="119.50" height="31.49" fill="#FFFFFF"/>
  <text x="59.75" y="5.69" font-size="3.49" font-weight="bold" text-anchor="middle" data-pos="229">Tab indent</text>
  <g transform="translate(8.54,0.00) scale(1.0000,1.0000)">
  <text x="6.96" y="13.26" font-size="3.00" text-anchor="end" dominant-baseline="central">bass</text>
  <line x1="8.54" y1="11.26" x2="8.54" y2="24.51" stroke="#000000" stroke-width="0.160"/>
  <line x1="8.54" y1="11.26" x2="40.70" y2="11.26" stroke="#000000" stroke-width="0.100"/>
  <line x1="8.54" y1="12.26" x2="40.70" y2="12.26" stroke="#000000" stroke-width="0.100"/>
  <line x1="8.54" y1="13.26" x2="40.70" y2="13.26" stroke="#000000" stroke-width="0.100"/>
  <line x1="8.54" y1="14.26" x2="40.70" y2="14.26" stroke="#000000" stroke-width="0.100"/>
  <line x1="8.54" y1="15.26" x2="40.70" y2="15.26" stroke="#000000" stroke-width="0.100"/>
  <text class="music" x="9.34" y="12.26" font-size="4.00"></text>
  <text class="music" x="13.66" y="13.26" font-size="4.00" data-pos="247"></text>
  <text class="music" x="17.36" y="13.76" font-size="4.00" data-pos="305"></text>
  <line x1="18.60" y1="13.61" x2="18.60" y2="10.26" stroke="#000000" stroke-width="0.130"/>
  <text class="music" x="20.38" y="13.26" font-size="4.00" data-pos="307"></text>
  <line x1="20.44" y1="13.41" x2="20.44" y2="16.59" stroke="#000000" stroke-width="0.130"/>
  <text class="music" x="23.38" y="12.76" font-size="4.00" data-pos="309"></text>
  <line x1="23.44" y1="12.91" x2="23.44" y2="16.26" stroke="#000000" stroke-width="0.130"/>
  <text class="music" x="26.38" y="12.26" font-size="4.00" data-pos="311"></text>
  <line x1="26.45" y1="12.41" x2="26.45" y2="15.76" stroke="#000000" stroke-width="0.130"/>
  <text class="music" x="30.46" y="11.76" font-size="4.00" data-pos="315"></text>
  <line x1="30.53" y1="11.91" x2="30.53" y2="15.26" stroke="#000000" stroke-width="0.130"/>
  <text class="music" x="33.46" y="11.26" font-size="4.00" data-pos="317"></text>
  <line x1="33.53" y1="11.41" x2="33.53" y2="14.76" stroke="#000000" stroke-width="0.130"/>
  <text class="music" x="36.47" y="11.76" font-size="4.00" data-pos="319"></text>
  <line x1="36.53" y1="11.76" x2="36.53" y2="15.26" stroke="#000000" stroke-width="0.130"/>
  <rect x="29.18" y="11.26" width="0.19" height="4.00" data-pos="313"/>
  <rect x="40.51" y="11.26" width="0.19" height="4.00" data-pos="322"/>
  <text class="music" x="9.34" y="22.26" font-size="4.00"></text>
  <text class="music" x="13.66" y="22.26" font-size="4.00" data-pos="247"></text>
  <rect x="29.18" y="20.01" width="0.19" height="4.50" data-pos="313"/>
  <rect x="40.51" y="20.01" width="0.19" height="4.50" data-pos="322"/>
  <text x="18.01" y="24.05" font-size="3.00" font-weight="bold" text-anchor="middle" data-pos="305">3</text>
  <line x1="18.01" y1="21.72" x2="18.01" y2="17.22" stroke="#000000" stroke-width="0.130"/>
  <text x="21.03" y="22.55" font-size="3.00" font-weight="bold" text-anchor="middle" data-pos="307">0</text>
  <line x1="21.03" y1="22.80" x2="21.03" y2="27.30" stroke="#000000" stroke-width="0.130"/>
  <text x="24.03" y="22.56" font-size="3.00" font-weight="bold" text-anchor="middle" data-pos="309">2</text>
  <line x1="24.03" y1="22.80" x2="24.03" y2="27.30" stroke="#000000" stroke-width="0.130"/>
  <text x="27.03" y="22.55" font-size="3.00" font-weight="bold" text-anchor="middle" data-pos="311">3</text>
  <line x1="27.03" y1="22.80" x2="27.03" y2="27.30" stroke="#000000" stroke-width="0.130"/>
  <text x="31.11" y="21.05" font-size="3.00" font-weight="bold" text-anchor="middle" data-pos="315">0</text>
  <line x1="31.11" y1="21.30" x2="31.11" y2="25.80" stroke="#000000" stroke-width="0.130"/>
  <text x="34.12" y="21.06" font-size="3.00" font-weight="bold" text-anchor="middle" data-pos="317">2</text>
  <line x1="34.12" y1="21.30" x2="34.12" y2="25.80" stroke="#000000" stroke-width="0.130"/>
  <text x="37.12" y="21.05" font-size="3.00" font-weight="bold" text-anchor="middle" data-pos="319">0</text>
  <line x1="36.87" y1="21.30" x2="36.87" y2="25.80" stroke="#000000" stroke-width="0.130"/>
  <line x1="37.37" y1="21.30" x2="37.37" y2="25.80" stroke="#000000" stroke-width="0.130"/>
  <line x1="8.54" y1="20.01" x2="30.26" y2="20.01" stroke="#000000" stroke-width="0.100"/>
  <line x1="31.97" y1="20.01" x2="33.26" y2="20.01" stroke="#000000" stroke-width="0.100"/>
  <line x1="34.97" y1="20.01" x2="36.26" y2="20.01" stroke="#000000" stroke-width="0.100"/>
  <line x1="37.97" y1="20.01" x2="40.70" y2="20.01" stroke="#000000" stroke-width="0.100"/>
  <line x1="8.54" y1="21.51" x2="20.17" y2="21.51" stroke="#000000" stroke-width="0.100"/>
  <line x1="21.88" y1="21.51" x2="23.18" y2="21.51" stroke="#000000" stroke-width="0.100"/>
  <line x1="24.88" y1="21.51" x2="26.18" y2="21.51" stroke="#000000" stroke-width="0.100"/>
  <line x1="27.89" y1="21.51" x2="40.70" y2="21.51" stroke="#000000" stroke-width="0.100"/>
  <line x1="8.54" y1="23.01" x2="17.15" y2="23.01" stroke="#000000" stroke-width="0.100"/>
  <line x1="18.86" y1="23.01" x2="40.70" y2="23.01" stroke="#000000" stroke-width="0.100"/>
  <line x1="8.54" y1="24.51" x2="40.70" y2="24.51" stroke="#000000" stroke-width="0.100"/>
  <rect x="8.84" y="7.46" width="2.07" height="2.60" fill="#FFFFFF" stroke="#000000" stroke-width="0.100" data-pos="293"/>
  <text x="9.87" y="9.66" font-size="2.20" font-weight="bold" text-anchor="middle" data-pos="293">A</text>
  </g>
</svg>
