<?xml version="1.0" encoding="UTF-8"?>
<svg xmlns="http://www.w3.org/2000/svg" width="1195.0" height="275.6" viewBox="0 0 119.50 27.56" font-family="TeX Gyre Schola, serif">
<style>
  @font-face { font-family: 'Emmentaler'; src: local('Emmentaler'); }
  .music { font-family: 'Emmentaler', serif; }
</style>
  <text x="59.75" y="5.69" font-size="3.49" font-weight="bold" text-anchor="middle" data-pos="536">MMR (single / short)</text>
  <text x="110.97" y="9.18" font-size="2.20" font-style="italic" text-anchor="end" data-pos="568">Lily#</text>
  <g transform="translate(8.54,0.00) scale(1.0000,1.0000)">
  <line x1="0.00" y1="16.32" x2="102.43" y2="16.32" stroke="#000000" stroke-width="0.100"/>
  <line x1="0.00" y1="17.32" x2="102.43" y2="17.32" stroke="#000000" stroke-width="0.100"/>
  <line x1="0.00" y1="18.32" x2="102.43" y2="18.32" stroke="#000000" stroke-width="0.100"/>
  <line x1="0.00" y1="19.32" x2="102.43" y2="19.32" stroke="#000000" stroke-width="0.100"/>
  <line x1="0.00" y1="20.32" x2="102.43" y2="20.32" stroke="#000000" stroke-width="0.100"/>
  <text class="music" x="0.80" y="19.32" font-size="4.00"></text>
  <text class="music" x="4.88" y="18.32" font-size="4.00" data-pos="587"></text>
  <line x1="8.08" y1="21.32" x2="10.04" y2="21.32" stroke="#000000" stroke-width="0.200"/>
  <line x1="26.35" y1="21.32" x2="28.30" y2="21.32" stroke="#000000" stroke-width="0.200"/>
  <line x1="93.26" y1="15.32" x2="95.21" y2="15.32" stroke="#000000" stroke-width="0.200"/>
  <line x1="95.89" y1="15.32" x2="97.85" y2="15.32" stroke="#000000" stroke-width="0.200"/>
  <line x1="98.52" y1="15.32" x2="100.48" y2="15.32" stroke="#000000" stroke-width="0.200"/>
  <line x1="98.52" y1="14.32" x2="100.48" y2="14.32" stroke="#000000" stroke-width="0.200"/>
  <text class="music" x="8.41" y="21.32" font-size="4.00" data-pos="648"></text>
  <line x1="9.65" y1="21.17" x2="9.65" y2="17.82" stroke="#000000" stroke-width="0.130"/>
  <text class="music" x="11.04" y="20.82" font-size="4.00" data-pos="655"></text>
  <line x1="12.28" y1="20.67" x2="12.28" y2="17.32" stroke="#000000" stroke-width="0.130"/>
  <text class="music" x="13.68" y="20.32" font-size="4.00" data-pos="657"></text>
  <line x1="14.92" y1="20.17" x2="14.92" y2="16.82" stroke="#000000" stroke-width="0.130"/>
  <text class="music" x="16.31" y="19.82" font-size="4.00" data-pos="659"></text>
  <line x1="17.55" y1="19.67" x2="17.55" y2="16.32" stroke="#000000" stroke-width="0.130"/>
  <text class="music" x="20.96" y="17.32" font-size="4.00" data-pos="663"></text>
  <text class="music" x="26.67" y="21.32" font-size="4.00" data-pos="672"></text>
  <line x1="27.91" y1="21.17" x2="27.91" y2="17.82" stroke="#000000" stroke-width="0.130"/>
  <text class="music" x="29.31" y="20.82" font-size="4.00" data-pos="679"></text>
  <line x1="30.55" y1="20.67" x2="30.55" y2="17.32" stroke="#000000" stroke-width="0.130"/>
  <text class="music" x="31.94" y="20.32" font-size="4.00" data-pos="681"></text>
  <line x1="33.18" y1="20.17" x2="33.18" y2="16.82" stroke="#000000" stroke-width="0.130"/>
  <text class="music" x="34.57" y="19.82" font-size="4.00" data-pos="683"></text>
  <line x1="35.81" y1="19.67" x2="35.81" y2="16.32" stroke="#000000" stroke-width="0.130"/>
  <text class="music" x="46.33" y="19.32" font-size="4.00" data-pos="698"></text>
  <line x1="47.57" y1="19.17" x2="47.57" y2="15.82" stroke="#000000" stroke-width="0.130"/>
  <text class="music" x="48.97" y="18.82" font-size="4.00" data-pos="705"></text>
  <line x1="50.21" y1="18.67" x2="50.21" y2="15.32" stroke="#000000" stroke-width="0.130"/>
  <text class="music" x="51.62" y="18.32" font-size="4.00" data-pos="707"></text>
  <line x1="51.68" y1="18.47" x2="51.68" y2="21.66" stroke="#000000" stroke-width="0.130"/>
  <text class="music" x="54.25" y="17.82" font-size="4.00" data-pos="709"></text>
  <line x1="54.32" y1="17.97" x2="54.32" y2="21.32" stroke="#000000" stroke-width="0.130"/>
  <text class="music" x="66.83" y="17.82" font-size="4.00" data-pos="724"></text>
  <line x1="66.90" y1="17.97" x2="66.90" y2="21.32" stroke="#000000" stroke-width="0.130"/>
  <text class="music" x="69.47" y="17.32" font-size="4.00" data-pos="731"></text>
  <line x1="69.53" y1="17.47" x2="69.53" y2="20.82" stroke="#000000" stroke-width="0.130"/>
  <text class="music" x="72.10" y="16.82" font-size="4.00" data-pos="733"></text>
  <line x1="72.16" y1="16.97" x2="72.16" y2="20.32" stroke="#000000" stroke-width="0.130"/>
  <text class="music" x="74.73" y="16.32" font-size="4.00" data-pos="735"></text>
  <line x1="74.80" y1="16.47" x2="74.80" y2="19.82" stroke="#000000" stroke-width="0.130"/>
  <text class="music" x="90.95" y="15.82" font-size="4.00" data-pos="750"></text>
  <line x1="91.02" y1="15.97" x2="91.02" y2="19.32" stroke="#000000" stroke-width="0.130"/>
  <text class="music" x="93.58" y="15.32" font-size="4.00" data-pos="757"></text>
  <line x1="93.65" y1="15.47" x2="93.65" y2="18.82" stroke="#000000" stroke-width="0.130"/>
  <text class="music" x="96.22" y="14.82" font-size="4.00" data-pos="759"></text>
  <line x1="96.28" y1="14.97" x2="96.28" y2="18.32" stroke="#000000" stroke-width="0.130"/>
  <text class="music" x="98.85" y="14.32" font-size="4.00" data-pos="761"></text>
  <line x1="98.91" y1="14.47" x2="98.91" y2="18.32" stroke="#000000" stroke-width="0.130"/>
  <rect x="19.18" y="16.32" width="0.19" height="4.00" data-pos="661"/>
  <rect x="25.67" y="16.32" width="0.19" height="4.00" data-pos="670"/>
  <rect x="37.44" y="16.32" width="0.19" height="4.00" data-pos="685"/>
  <rect x="45.33" y="16.32" width="0.19" height="4.00" data-pos="696"/>
  <rect x="56.72" y="16.32" width="0.19" height="4.00" data-pos="711"/>
  <rect x="65.71" y="16.32" width="0.19" height="4.00" data-pos="722"/>
  <rect x="77.13" y="16.32" width="0.19" height="4.00" data-pos="737"/>
  <rect x="89.79" y="16.32" width="0.19" height="4.00" data-pos="748"/>
  <rect x="101.34" y="16.32" width="0.19" height="4.00" data-pos="763"/>
  <rect x="101.83" y="16.32" width="0.60" height="4.00" data-pos="763"/>
  <rect x="0.30" y="11.46" width="6.22" height="2.60" fill="#FFFFFF" stroke="#000000" stroke-width="0.100" data-pos="622"/>
  <text x="3.41" y="13.66" font-size="2.20" font-weight="bold" text-anchor="middle" data-pos="622">Main</text>
  <text class="music" x="7.32" y="13.66" font-size="1.60" data-pos="0"></text>
  <line x1="7.84" y1="13.66" x2="7.84" y2="12.26" stroke="#000000" stroke-width="0.100" data-pos="0"/>
  <text x="8.42" y="13.66" font-size="1.80" data-pos="0">= 120</text>
  <text class="music" x="40.73" y="17.32" font-size="4.00"></text>
  <text class="music" x="61.01" y="18.32" font-size="4.00"></text>
  <text class="music" x="60.58" y="15.92" font-size="4.00"></text>
  <text class="music" x="81.21" y="18.32" font-size="4.00"></text>
  <text class="music" x="84.40" y="17.32" font-size="4.00"></text>
  <text class="music" x="82.89" y="15.92" font-size="4.00"></text>
  </g>
</svg>
