<?xml version="1.0" encoding="UTF-8"?>
<svg xmlns="http://www.w3.org/2000/svg" width="1195.0" height="209.3" viewBox="0 0 119.50 20.93" font-family="TeX Gyre Schola, serif">
<style>
  @font-face { font-family: 'Emmentaler'; src: local('Emmentaler'); }
  .music { font-family: 'Emmentaler', serif; }
</style>
  <rect x="0" y="0" width="119.50" height="20.93" fill="#FFFFFF"/>
  <g transform="translate(8.54,0.00) scale(1.0000,1.0000)">
  <line x1="8.59" y1="9.69" x2="26.15" y2="9.69" stroke="#000000" stroke-width="0.100"/>
  <line x1="8.59" y1="10.69" x2="26.15" y2="10.69" stroke="#000000" stroke-width="0.100"/>
  <line x1="8.59" y1="11.69" x2="26.15" y2="11.69" stroke="#000000" stroke-width="0.100"/>
  <line x1="8.59" y1="12.69" x2="26.15" y2="12.69" stroke="#000000" stroke-width="0.100"/>
  <line x1="8.59" y1="13.69" x2="26.15" y2="13.69" stroke="#000000" stroke-width="0.100"/>
  <text class="music" x="9.34" y="12.69" font-size="4.00" data-pos="517"></text>
  <text class="music" x="13.42" y="11.69" font-size="4.00" data-pos="498"></text>
  <line x1="16.79" y1="14.69" x2="18.75" y2="14.69" stroke="#000000" stroke-width="0.200"/>
  <line x1="20.50" y1="14.69" x2="22.46" y2="14.69" stroke="#000000" stroke-width="0.200"/>
  <line x1="23.00" y1="14.69" x2="24.96" y2="14.69" stroke="#000000" stroke-width="0.200"/>
  <text class="music" x="17.12" y="14.69" font-size="4.00" data-pos="560"></text>
  <line x1="18.36" y1="14.54" x2="18.36" y2="11.19" stroke="#000000" stroke-width="0.130"/>
  <text class="music" x="20.83" y="14.69" font-size="4.00" data-pos="563"></text>
  <text class="music" x="23.33" y="14.69" font-size="4.00" data-pos="566"></text>
  <rect x="26.01" y="9.69" width="0.19" height="4.00" data-pos="0"/>
  <polygon points="22.00,11.45 24.63,11.45 24.63,11.93 22.00,11.93"/>
  <line x1="22.06" y1="14.54" x2="22.06" y2="11.69" stroke="#000000" stroke-width="0.130"/>
  <line x1="24.57" y1="14.54" x2="24.57" y2="11.69" stroke="#000000" stroke-width="0.130"/>
  </g>
</svg>
