<?xml version="1.0" encoding="UTF-8"?>
<svg xmlns="http://www.w3.org/2000/svg" width="1195.0" height="269.8" viewBox="0 0 119.50 26.98" font-family="TeX Gyre Schola, serif">
<style>
  @font-face { font-family: 'Emmentaler'; src: local('Emmentaler'); }
  .music { font-family: 'Emmentaler', serif; }
</style>
  <rect x="0" y="0" width="119.50" height="26.98" fill="#FFFFFF"/>
  <g transform="translate(8.54,0.00) scale(1.0000,1.0000)">
  <line x1="0.05" y1="10.29" x2="74.53" y2="10.29" stroke="#000000" stroke-width="0.100"/>
  <line x1="0.05" y1="11.29" x2="74.53" y2="11.29" stroke="#000000" stroke-width="0.100"/>
  <line x1="0.05" y1="12.29" x2="74.53" y2="12.29" stroke="#000000" stroke-width="0.100"/>
  <line x1="0.05" y1="13.29" x2="74.53" y2="13.29" stroke="#000000" stroke-width="0.100"/>
  <line x1="0.05" y1="14.29" x2="74.53" y2="14.29" stroke="#000000" stroke-width="0.100"/>
  <text class="music" x="0.80" y="13.29" font-size="4.00" data-pos="218"></text>
  <text class="music" x="4.88" y="12.29" font-size="4.00"></text>
  <line x1="8.26" y1="15.29" x2="10.22" y2="15.29" stroke="#000000" stroke-width="0.200"/>
  <line x1="52.21" y1="15.29" x2="54.28" y2="15.29" stroke="#000000" stroke-width="0.200"/>
  <line x1="52.21" y1="16.29" x2="54.28" y2="16.29" stroke="#000000" stroke-width="0.200"/>
  <line x1="58.64" y1="15.29" x2="61.59" y2="15.29" stroke="#000000" stroke-width="0.200"/>
  <line x1="58.64" y1="16.29" x2="61.59" y2="16.29" stroke="#000000" stroke-width="0.200"/>
  <line x1="58.64" y1="17.29" x2="61.59" y2="17.29" stroke="#000000" stroke-width="0.200"/>
  <text class="music" x="8.59" y="15.29" font-size="4.00" data-pos="258"></text>
  <line x1="9.82" y1="15.14" x2="9.82" y2="11.79" stroke="#000000" stroke-width="0.130"/>
  <text class="music" x="11.59" y="14.79" font-size="4.00" data-pos="265"></text>
  <line x1="12.83" y1="14.64" x2="12.83" y2="11.29" stroke="#000000" stroke-width="0.130"/>
  <text class="music" x="14.59" y="14.29" font-size="4.00" data-pos="270"></text>
  <line x1="15.83" y1="14.14" x2="15.83" y2="10.79" stroke="#000000" stroke-width="0.130"/>
  <text class="music" x="17.59" y="13.79" font-size="4.00" data-pos="275"></text>
  <line x1="18.83" y1="13.64" x2="18.83" y2="10.29" stroke="#000000" stroke-width="0.130"/>
  <text class="music" x="21.92" y="13.29" font-size="4.00" data-pos="287"></text>
  <line x1="23.16" y1="13.14" x2="23.16" y2="9.79" stroke="#000000" stroke-width="0.130"/>
  <text class="music" x="24.92" y="12.79" font-size="4.00" data-pos="304"></text>
  <line x1="26.16" y1="12.64" x2="26.16" y2="9.29" stroke="#000000" stroke-width="0.130"/>
  <text class="music" x="27.94" y="12.29" font-size="4.00" data-pos="320"></text>
  <line x1="28.01" y1="12.44" x2="28.01" y2="15.62" stroke="#000000" stroke-width="0.130"/>
  <text class="music" x="30.95" y="11.79" font-size="4.00" data-pos="328"></text>
  <line x1="31.01" y1="11.94" x2="31.01" y2="15.29" stroke="#000000" stroke-width="0.130"/>
  <text class="music" x="35.03" y="11.29" font-size="4.00" data-pos="344"></text>
  <line x1="35.10" y1="11.44" x2="35.10" y2="14.79" stroke="#000000" stroke-width="0.130"/>
  <text class="music" x="38.04" y="11.79" font-size="4.00" data-pos="357"></text>
  <line x1="38.10" y1="11.94" x2="38.10" y2="15.29" stroke="#000000" stroke-width="0.130"/>
  <text class="music" x="41.04" y="12.29" font-size="4.00" data-pos="378"></text>
  <line x1="41.10" y1="12.44" x2="41.10" y2="15.62" stroke="#000000" stroke-width="0.130"/>
  <text class="music" x="44.02" y="12.79" font-size="4.00" data-pos="390"></text>
  <line x1="45.26" y1="12.64" x2="45.26" y2="9.29" stroke="#000000" stroke-width="0.130"/>
  <text class="music" x="48.28" y="14.79" font-size="4.00" data-pos="402"></text>
  <text class="music" x="48.28" y="13.79" font-size="4.00" data-pos="404"></text>
  <text class="music" x="48.28" y="12.79" font-size="4.00" data-pos="406"></text>
  <line x1="49.59" y1="14.79" x2="49.59" y2="9.29" stroke="#000000" stroke-width="0.130"/>
  <text class="music" x="52.55" y="16.79" font-size="4.00" data-pos="420"></text>
  <text class="music" x="52.55" y="15.79" font-size="4.00" data-pos="422"></text>
  <text class="music" x="52.55" y="14.79" font-size="4.00" data-pos="424"></text>
  <line x1="53.87" y1="16.79" x2="53.87" y2="11.29" stroke="#000000" stroke-width="0.130"/>
  <text class="music" x="59.13" y="17.79" font-size="4.00" data-pos="443"></text>
  <text class="music" x="66.28" y="12.79" font-size="4.00" data-pos="468"></text>
  <line x1="67.52" y1="12.64" x2="67.52" y2="9.29" stroke="#000000" stroke-width="0.130"/>
  <text class="music" x="69.29" y="10.29" font-size="4.00" data-pos="480"></text>
  <text class="music" x="71.24" y="9.79" font-size="4.00" data-pos="480"></text>
  <line x1="65.96" y1="15.29" x2="67.91" y2="15.29" stroke="#000000" stroke-width="0.200"/>
  <line x1="65.96" y1="16.29" x2="67.91" y2="16.29" stroke="#000000" stroke-width="0.200"/>
  <line x1="65.96" y1="17.29" x2="67.91" y2="17.29" stroke="#000000" stroke-width="0.200"/>
  <line x1="65.96" y1="18.29" x2="67.91" y2="18.29" stroke="#000000" stroke-width="0.200"/>
  <line x1="68.94" y1="15.29" x2="71.01" y2="15.29" stroke="#000000" stroke-width="0.200"/>
  <line x1="68.94" y1="16.29" x2="71.01" y2="16.29" stroke="#000000" stroke-width="0.200"/>
  <line x1="68.94" y1="17.29" x2="71.01" y2="17.29" stroke="#000000" stroke-width="0.200"/>
  <line x1="68.94" y1="18.29" x2="71.01" y2="18.29" stroke="#000000" stroke-width="0.200"/>
  <text class="music" x="66.28" y="18.79" font-size="4.00" data-pos="488"></text>
  <line x1="66.35" y1="18.94" x2="66.35" y2="21.29" stroke="#000000" stroke-width="0.130"/>
  <text class="music" x="69.29" y="18.29" font-size="4.00" data-pos="491"></text>
  <line x1="69.35" y1="18.29" x2="69.35" y2="20.79" stroke="#000000" stroke-width="0.130"/>
  <text class="music" x="71.11" y="18.79" font-size="4.00"></text>
  <rect x="20.83" y="10.29" width="0.19" height="4.00" data-pos="281"/>
  <rect x="33.78" y="10.29" width="0.19" height="4.00" data-pos="338"/>
  <rect x="47.19" y="10.29" width="0.19" height="4.00" data-pos="395"/>
  <rect x="57.04" y="10.29" width="0.19" height="4.00" data-pos="437"/>
  <rect x="65.19" y="10.29" width="0.19" height="4.00" data-pos="454"/>
  <rect x="74.39" y="10.29" width="0.19" height="4.00" data-pos="497"/>
  <text x="9.24" y="18.33" font-size="2.00" font-weight="bold" font-style="italic" text-anchor="middle" data-pos="260">sfz</text>
  <text x="12.24" y="18.71" font-size="2.00" font-weight="bold" font-style="italic" text-anchor="middle" data-pos="266">fp</text>
  <text x="15.24" y="17.08" font-size="2.00" font-weight="bold" font-style="italic" text-anchor="middle" data-pos="271">sf</text>
  <text x="18.24" y="17.34" font-size="2.00" font-weight="bold" font-style="italic" text-anchor="middle" data-pos="276">rfz</text>
  <text x="44.67" y="16.83" font-size="2.00" font-weight="bold" font-style="italic" text-anchor="middle" data-pos="391">fz</text>
  <text class="music" x="22.57" y="14.59" font-size="4.00" data-pos="289"></text>
  <text class="music" x="25.58" y="14.59" font-size="4.00" data-pos="305"></text>
  <text class="music" x="28.60" y="9.99" font-size="4.00" data-pos="321"></text>
  <text class="music" x="31.60" y="9.99" font-size="4.00" data-pos="329"></text>
  <text class="music" x="35.69" y="9.64" font-size="4.00" data-pos="346"></text>
  <text class="music" x="38.69" y="15.53" font-size="4.00" data-pos="358"></text>
  <text class="music" x="41.69" y="9.64" font-size="4.00" data-pos="379"></text>
  <text class="music" x="48.97" y="8.81" font-size="4.00" data-pos="410"></text>
  <text class="music" x="53.24" y="17.73" font-size="4.00" data-pos="427"></text>
  <text class="music" x="60.12" y="9.70" font-size="4.00" data-pos="445"></text>
  <text class="music" x="66.94" y="8.81" font-size="4.00" data-pos="471"></text>
  <rect x="3.37" y="6.69" width="8.08" height="2.75" fill="#FFFFFF" stroke="#000000" stroke-width="0.100" data-pos="228"/>
  <text x="7.40" y="9.04" font-size="2.77" font-weight="bold" text-anchor="middle" data-pos="228">Main</text>
  </g>
</svg>
