<?xml version="1.0" encoding="UTF-8"?>
<svg xmlns="http://www.w3.org/2000/svg" width="1195.0" height="269.0" viewBox="0 0 119.50 26.90" font-family="TeX Gyre Schola, serif">
<style>
  @font-face { font-family: 'Emmentaler'; src: local('Emmentaler'); }
  .music { font-family: 'Emmentaler', serif; }
</style>
  <rect x="0" y="0" width="119.50" height="26.90" fill="#FFFFFF"/>
  <g transform="translate(8.54,0.00) scale(1.0000,1.0000)">
  <line x1="0.00" y1="15.66" x2="55.13" y2="15.66" stroke="#000000" stroke-width="0.100"/>
  <line x1="0.00" y1="16.66" x2="55.13" y2="16.66" stroke="#000000" stroke-width="0.100"/>
  <line x1="0.00" y1="17.66" x2="55.13" y2="17.66" stroke="#000000" stroke-width="0.100"/>
  <line x1="0.00" y1="18.66" x2="55.13" y2="18.66" stroke="#000000" stroke-width="0.100"/>
  <line x1="0.00" y1="19.66" x2="55.13" y2="19.66" stroke="#000000" stroke-width="0.100"/>
  <text class="music" x="0.80" y="18.66" font-size="4.00" data-pos="210"></text>
  <text class="music" x="4.88" y="17.66" font-size="4.00"></text>
  <line x1="8.26" y1="20.66" x2="10.22" y2="20.66" stroke="#000000" stroke-width="0.200"/>
  <line x1="42.84" y1="14.66" x2="44.80" y2="14.66" stroke="#000000" stroke-width="0.200"/>
  <text class="music" x="8.59" y="20.66" font-size="4.00" data-pos="250"></text>
  <line x1="9.82" y1="20.51" x2="9.82" y2="17.16" stroke="#000000" stroke-width="0.130"/>
  <text class="music" x="11.59" y="20.16" font-size="4.00" data-pos="253"></text>
  <line x1="12.83" y1="20.01" x2="12.83" y2="16.66" stroke="#000000" stroke-width="0.130"/>
  <text class="music" x="14.59" y="19.66" font-size="4.00" data-pos="255"></text>
  <line x1="15.83" y1="19.51" x2="15.83" y2="16.16" stroke="#000000" stroke-width="0.130"/>
  <text class="music" x="17.59" y="19.16" font-size="4.00" data-pos="257"></text>
  <line x1="18.83" y1="19.01" x2="18.83" y2="15.66" stroke="#000000" stroke-width="0.130"/>
  <text class="music" x="21.92" y="18.66" font-size="4.00" data-pos="261"></text>
  <line x1="23.16" y1="18.51" x2="23.16" y2="15.16" stroke="#000000" stroke-width="0.130"/>
  <text class="music" x="24.92" y="18.16" font-size="4.00" data-pos="264"></text>
  <line x1="26.16" y1="18.01" x2="26.16" y2="14.66" stroke="#000000" stroke-width="0.130"/>
  <text class="music" x="27.94" y="17.66" font-size="4.00" data-pos="266"></text>
  <line x1="28.01" y1="17.81" x2="28.01" y2="20.99" stroke="#000000" stroke-width="0.130"/>
  <text class="music" x="30.95" y="17.16" font-size="4.00" data-pos="268"></text>
  <line x1="31.01" y1="17.31" x2="31.01" y2="20.66" stroke="#000000" stroke-width="0.130"/>
  <text class="music" x="35.87" y="17.16" font-size="4.00" data-pos="272"></text>
  <text class="music" x="43.17" y="14.66" font-size="4.00" data-pos="425"></text>
  <line x1="43.23" y1="14.81" x2="43.23" y2="18.16" stroke="#000000" stroke-width="0.130"/>
  <text class="music" x="46.17" y="15.16" font-size="4.00" data-pos="443"></text>
  <line x1="46.23" y1="15.31" x2="46.23" y2="18.66" stroke="#000000" stroke-width="0.130"/>
  <text class="music" x="49.17" y="15.66" font-size="4.00" data-pos="445"></text>
  <line x1="49.24" y1="15.81" x2="49.24" y2="19.16" stroke="#000000" stroke-width="0.130"/>
  <text class="music" x="52.17" y="16.16" font-size="4.00" data-pos="447"></text>
  <line x1="52.24" y1="16.31" x2="52.24" y2="19.66" stroke="#000000" stroke-width="0.130"/>
  <rect x="20.83" y="15.66" width="0.19" height="4.00" data-pos="259"/>
  <rect x="33.78" y="15.66" width="0.19" height="4.00" data-pos="270"/>
  <rect x="41.93" y="15.66" width="0.19" height="4.00" data-pos="275"/>
  <rect x="54.94" y="15.66" width="0.19" height="4.00" data-pos="449"/>
  <text class="music" x="43.82" y="13.88" font-size="4.00" data-pos="428"></text>
  <text x="8.59" y="12.38" font-size="2.62" font-family="TeX Gyre Heros, sans-serif" data-pos="471">C</text>
  <text x="14.59" y="12.38" font-size="2.62" font-family="TeX Gyre Heros, sans-serif" data-pos="473">G7</text>
  <text x="21.92" y="12.38" font-size="2.62" font-family="TeX Gyre Heros, sans-serif" data-pos="478">Am</text>
  <text x="35.87" y="12.38" font-size="2.62" font-family="TeX Gyre Heros, sans-serif" data-pos="483">C</text>
  <text x="43.17" y="12.38" font-size="2.62" font-family="TeX Gyre Heros, sans-serif" data-pos="487">F</text>
  <rect x="0.30" y="10.80" width="6.20" height="2.60" fill="#FFFFFF" stroke="#000000" stroke-width="0.100" data-pos="220"/>
  <text x="3.40" y="13.00" font-size="2.20" font-weight="bold" text-anchor="middle" data-pos="220">Main</text>
  </g>
</svg>
