<?xml version="1.0" encoding="UTF-8"?>
<svg xmlns="http://www.w3.org/2000/svg" width="1190.5" height="214.1" viewBox="0 0 119.05 21.41" font-family="serif">
<style>
  @font-face { font-family: 'Emmentaler'; src: local('Emmentaler'); }
  .music { font-family: 'Emmentaler', serif; }
</style>
  <text x="59.52" y="5.00" font-size="3.49" font-weight="bold" text-anchor="middle" data-pos="578">Crossing-voice note collision</text>
  <g transform="translate(8.50,0.00) scale(1.0000,1.0000)">
  <line x1="0.00" y1="12.41" x2="29.03" y2="12.41" stroke="#000000" stroke-width="0.100"/>
  <line x1="0.00" y1="13.41" x2="29.03" y2="13.41" stroke="#000000" stroke-width="0.100"/>
  <line x1="0.00" y1="14.41" x2="29.03" y2="14.41" stroke="#000000" stroke-width="0.100"/>
  <line x1="0.00" y1="15.41" x2="29.03" y2="15.41" stroke="#000000" stroke-width="0.100"/>
  <line x1="0.00" y1="16.41" x2="29.03" y2="16.41" stroke="#000000" stroke-width="0.100"/>
  <text class="music" x="0.30" y="15.41" font-size="4.00" data-pos="621"></text>
  <text class="music" x="3.30" y="14.41" font-size="4.00"></text>
  <text class="music" x="7.80" y="13.91" font-size="4.00" data-pos="667"></text>
  <text class="music" x="10.30" y="13.91" font-size="4.00" data-pos="671"></text>
  <text class="music" x="12.81" y="13.91" font-size="4.00" data-pos="674"></text>
  <text class="music" x="15.31" y="13.91" font-size="4.00" data-pos="677"></text>
  <text class="music" x="17.82" y="13.91" font-size="4.00" data-pos="680"></text>
  <text class="music" x="20.32" y="13.91" font-size="4.00" data-pos="683"></text>
  <text class="music" x="22.82" y="13.91" font-size="4.00" data-pos="686"></text>
  <text class="music" x="25.33" y="13.91" font-size="4.00" data-pos="689"></text>
  <line x1="7.03" y1="11.41" x2="8.99" y2="11.41" stroke="#000000" stroke-width="0.200"/>
  <line x1="12.04" y1="11.41" x2="13.99" y2="11.41" stroke="#000000" stroke-width="0.200"/>
  <line x1="17.05" y1="11.41" x2="19.00" y2="11.41" stroke="#000000" stroke-width="0.200"/>
  <line x1="22.05" y1="11.41" x2="24.01" y2="11.41" stroke="#000000" stroke-width="0.200"/>
  <text class="music" x="7.36" y="11.41" font-size="4.00" data-pos="708"></text>
  <line x1="7.42" y1="11.56" x2="7.42" y2="14.91" stroke="#000000" stroke-width="0.130"/>
  <text class="music" x="12.36" y="11.41" font-size="4.00" data-pos="712"></text>
  <line x1="12.43" y1="11.56" x2="12.43" y2="14.91" stroke="#000000" stroke-width="0.130"/>
  <text class="music" x="17.37" y="11.41" font-size="4.00" data-pos="715"></text>
  <line x1="17.44" y1="11.56" x2="17.44" y2="14.91" stroke="#000000" stroke-width="0.130"/>
  <text class="music" x="22.38" y="11.41" font-size="4.00" data-pos="718"></text>
  <line x1="22.45" y1="11.56" x2="22.45" y2="14.91" stroke="#000000" stroke-width="0.130"/>
  <rect x="27.94" y="12.41" width="0.19" height="4.00"/>
  <rect x="28.43" y="12.41" width="0.60" height="4.00"/>
  <line x1="8.97" y1="10.41" x2="16.62" y2="10.41" stroke="#000000" stroke-width="0.480"/>
  <line x1="9.04" y1="13.76" x2="9.04" y2="10.41" stroke="#000000" stroke-width="0.130"/>
  <line x1="11.54" y1="13.76" x2="11.54" y2="10.41" stroke="#000000" stroke-width="0.130"/>
  <line x1="14.05" y1="13.76" x2="14.05" y2="10.41" stroke="#000000" stroke-width="0.130"/>
  <line x1="16.55" y1="13.76" x2="16.55" y2="10.41" stroke="#000000" stroke-width="0.130"/>
  <line x1="18.99" y1="10.41" x2="26.63" y2="10.41" stroke="#000000" stroke-width="0.480"/>
  <line x1="19.05" y1="13.76" x2="19.05" y2="10.41" stroke="#000000" stroke-width="0.130"/>
  <line x1="21.56" y1="13.76" x2="21.56" y2="10.41" stroke="#000000" stroke-width="0.130"/>
  <line x1="24.06" y1="13.76" x2="24.06" y2="10.41" stroke="#000000" stroke-width="0.130"/>
  <line x1="26.57" y1="13.76" x2="26.57" y2="10.41" stroke="#000000" stroke-width="0.130"/>
  <rect x="0.30" y="7.57" width="1.62" height="2.60" fill="#FFFFFF" stroke="#000000" stroke-width="0.100" data-pos="635"/>
  <text x="1.11" y="9.77" font-size="2.20" font-weight="bold" text-anchor="middle" data-pos="635">S</text>
  </g>
</svg>
