<?xml version="1.0" encoding="UTF-8"?>
<svg xmlns="http://www.w3.org/2000/svg" width="1190.5" height="351.3" viewBox="0 0 119.05 35.13" font-family="serif">
<style>
  @font-face { font-family: 'Emmentaler'; src: local('Emmentaler'); }
  .music { font-family: 'Emmentaler', serif; }
</style>
  <text x="59.52" y="5.00" font-size="3.49" font-weight="bold" text-anchor="middle" data-pos="311">Multi-Staff Transpose</text>
  <text x="110.55" y="8.49" font-size="2.20" font-style="italic" text-anchor="end" data-pos="344">Lily#</text>
  <g transform="translate(8.50,0.00) scale(1.0000,1.0000)">
  <text x="-0.30" y="22.13" font-size="0.86" font-family="Emmentaler-Brace" text-anchor="end"></text>
  <line x1="0.00" y1="15.63" x2="0.00" y2="28.63" stroke="#000000" stroke-width="0.160"/>
  <rect x="22.14" y="19.63" width="0.19" height="5.00"/>
  <rect x="31.52" y="19.63" width="0.19" height="5.00"/>
  <rect x="32.01" y="19.63" width="0.60" height="5.00"/>
  <line x1="0.00" y1="15.63" x2="32.61" y2="15.63" stroke="#000000" stroke-width="0.100"/>
  <line x1="0.00" y1="16.63" x2="32.61" y2="16.63" stroke="#000000" stroke-width="0.100"/>
  <line x1="0.00" y1="17.63" x2="32.61" y2="17.63" stroke="#000000" stroke-width="0.100"/>
  <line x1="0.00" y1="18.63" x2="32.61" y2="18.63" stroke="#000000" stroke-width="0.100"/>
  <line x1="0.00" y1="19.63" x2="32.61" y2="19.63" stroke="#000000" stroke-width="0.100"/>
  <text class="music" x="0.30" y="18.63" font-size="4.00"></text>
  <text class="music" x="3.30" y="15.63" font-size="4.00" data-pos="362"></text>
  <text class="music" x="4.40" y="17.13" font-size="4.00" data-pos="362"></text>
  <text class="music" x="5.90" y="17.63" font-size="4.00" data-pos="352"></text>
  <line x1="23.08" y1="14.63" x2="25.14" y2="14.63" stroke="#000000" stroke-width="0.200"/>
  <text class="music" x="10.33" y="16.63" font-size="4.00" data-pos="465"></text>
  <line x1="10.40" y1="16.78" x2="10.40" y2="20.13" stroke="#000000" stroke-width="0.130"/>
  <text class="music" x="13.35" y="16.13" font-size="4.00" data-pos="469"></text>
  <line x1="13.41" y1="16.28" x2="13.41" y2="19.63" stroke="#000000" stroke-width="0.130"/>
  <text class="music" x="16.35" y="15.63" font-size="4.00" data-pos="471"></text>
  <line x1="16.41" y1="15.78" x2="16.41" y2="19.13" stroke="#000000" stroke-width="0.130"/>
  <text class="music" x="19.35" y="15.13" font-size="4.00" data-pos="473"></text>
  <line x1="19.41" y1="15.28" x2="19.41" y2="18.63" stroke="#000000" stroke-width="0.130"/>
  <text class="music" x="23.42" y="14.63" font-size="4.00" data-pos="477"></text>
  <line x1="23.48" y1="14.63" x2="23.48" y2="18.13" stroke="#000000" stroke-width="0.130"/>
  <text class="music" x="27.45" y="15.63" font-size="4.00" data-pos="480"></text>
  <line x1="27.51" y1="15.63" x2="27.51" y2="19.13" stroke="#000000" stroke-width="0.130"/>
  <rect x="22.14" y="15.63" width="0.19" height="4.00" data-pos="475"/>
  <rect x="31.52" y="15.63" width="0.19" height="4.00" data-pos="482"/>
  <rect x="32.01" y="15.63" width="0.60" height="4.00" data-pos="482"/>
  <line x1="0.00" y1="24.63" x2="32.61" y2="24.63" stroke="#000000" stroke-width="0.100"/>
  <line x1="0.00" y1="25.63" x2="32.61" y2="25.63" stroke="#000000" stroke-width="0.100"/>
  <line x1="0.00" y1="26.63" x2="32.61" y2="26.63" stroke="#000000" stroke-width="0.100"/>
  <line x1="0.00" y1="27.63" x2="32.61" y2="27.63" stroke="#000000" stroke-width="0.100"/>
  <line x1="0.00" y1="28.63" x2="32.61" y2="28.63" stroke="#000000" stroke-width="0.100"/>
  <text class="music" x="0.30" y="25.63" font-size="4.00"></text>
  <text class="music" x="3.30" y="26.63" font-size="4.00" data-pos="352"></text>
  <text class="music" x="10.33" y="27.13" font-size="4.00" data-pos="496"></text>
  <line x1="11.57" y1="26.98" x2="11.57" y2="23.63" stroke="#000000" stroke-width="0.130"/>
  <text class="music" x="13.35" y="26.63" font-size="4.00" data-pos="499"></text>
  <line x1="13.41" y1="26.78" x2="13.41" y2="30.13" stroke="#000000" stroke-width="0.130"/>
  <text class="music" x="16.35" y="26.13" font-size="4.00" data-pos="501"></text>
  <line x1="16.41" y1="26.28" x2="16.41" y2="29.63" stroke="#000000" stroke-width="0.130"/>
  <text class="music" x="19.35" y="25.63" font-size="4.00" data-pos="503"></text>
  <line x1="19.41" y1="25.78" x2="19.41" y2="29.13" stroke="#000000" stroke-width="0.130"/>
  <text class="music" x="23.42" y="25.13" font-size="4.00" data-pos="507"></text>
  <line x1="23.48" y1="25.13" x2="23.48" y2="28.63" stroke="#000000" stroke-width="0.130"/>
  <text class="music" x="27.45" y="26.13" font-size="4.00" data-pos="510"></text>
  <line x1="27.51" y1="26.13" x2="27.51" y2="29.63" stroke="#000000" stroke-width="0.130"/>
  <rect x="22.14" y="24.63" width="0.19" height="4.00" data-pos="505"/>
  <rect x="31.52" y="24.63" width="0.19" height="4.00" data-pos="512"/>
  <rect x="32.01" y="24.63" width="0.60" height="4.00" data-pos="512"/>
  <rect x="22.14" y="15.63" width="0.19" height="13.00"/>
  <rect x="31.52" y="15.63" width="0.19" height="13.00"/>
  <rect x="32.01" y="15.63" width="0.60" height="13.00"/>
  <rect x="0.30" y="10.77" width="5.41" height="2.60" fill="#FFFFFF" stroke="#000000" stroke-width="0.100" data-pos="440"/>
  <text x="3.01" y="12.97" font-size="2.20" font-weight="bold" text-anchor="middle" data-pos="440">Main</text>
  </g>
</svg>
