<?xml version="1.0" encoding="UTF-8"?>
<svg xmlns="http://www.w3.org/2000/svg" width="1190.5" height="256.3" viewBox="0 0 119.05 25.63" font-family="serif">
<style>
  @font-face { font-family: 'Emmentaler'; src: local('Emmentaler'); }
  .music { font-family: 'Emmentaler', serif; }
</style>
  <text x="59.52" y="5.00" font-size="3.49" font-weight="bold" text-anchor="middle" data-pos="279">Time Signature Changes</text>
  <text x="110.55" y="8.49" font-size="2.20" font-style="italic" text-anchor="end" data-pos="313">Lily#</text>
  <g transform="translate(8.50,0.00) scale(1.0000,1.0000)">
  <line x1="0.00" y1="15.63" x2="56.77" y2="15.63" stroke="#000000" stroke-width="0.100"/>
  <line x1="0.00" y1="16.63" x2="56.77" y2="16.63" stroke="#000000" stroke-width="0.100"/>
  <line x1="0.00" y1="17.63" x2="56.77" y2="17.63" stroke="#000000" stroke-width="0.100"/>
  <line x1="0.00" y1="18.63" x2="56.77" y2="18.63" stroke="#000000" stroke-width="0.100"/>
  <line x1="0.00" y1="19.63" x2="56.77" y2="19.63" stroke="#000000" stroke-width="0.100"/>
  <text class="music" x="0.30" y="18.63" font-size="4.00" data-pos="370"></text>
  <text class="music" x="3.30" y="17.63" font-size="4.00" data-pos="332"></text>
  <line x1="25.22" y1="14.63" x2="27.18" y2="14.63" stroke="#000000" stroke-width="0.200"/>
  <line x1="28.22" y1="14.63" x2="30.18" y2="14.63" stroke="#000000" stroke-width="0.200"/>
  <line x1="34.04" y1="14.63" x2="35.99" y2="14.63" stroke="#000000" stroke-width="0.200"/>
  <text class="music" x="7.68" y="17.13" font-size="4.00" data-pos="532"></text>
  <line x1="7.75" y1="17.28" x2="7.75" y2="20.63" stroke="#000000" stroke-width="0.130"/>
  <text class="music" x="10.69" y="16.63" font-size="4.00" data-pos="538"></text>
  <line x1="10.75" y1="16.78" x2="10.75" y2="20.13" stroke="#000000" stroke-width="0.130"/>
  <text class="music" x="13.69" y="16.13" font-size="4.00" data-pos="540"></text>
  <line x1="13.75" y1="16.28" x2="13.75" y2="19.63" stroke="#000000" stroke-width="0.130"/>
  <text class="music" x="16.69" y="15.63" font-size="4.00" data-pos="542"></text>
  <line x1="16.76" y1="15.78" x2="16.76" y2="19.13" stroke="#000000" stroke-width="0.130"/>
  <text class="music" x="20.15" y="17.63" font-size="4.00" data-pos="546"></text>
  <text class="music" x="20.15" y="19.63" font-size="4.00" data-pos="546"></text>
  <text class="music" x="22.55" y="15.13" font-size="4.00" data-pos="557"></text>
  <line x1="22.61" y1="15.28" x2="22.61" y2="18.63" stroke="#000000" stroke-width="0.130"/>
  <text class="music" x="25.55" y="14.63" font-size="4.00" data-pos="560"></text>
  <line x1="25.61" y1="14.78" x2="25.61" y2="18.13" stroke="#000000" stroke-width="0.130"/>
  <text class="music" x="28.55" y="14.13" font-size="4.00" data-pos="562"></text>
  <line x1="28.62" y1="14.28" x2="28.62" y2="17.63" stroke="#000000" stroke-width="0.130"/>
  <text class="music" x="32.10" y="17.63" font-size="4.00" data-pos="566"></text>
  <text class="music" x="32.10" y="19.63" font-size="4.00" data-pos="566"></text>
  <text class="music" x="34.36" y="14.63" font-size="4.00" data-pos="577"></text>
  <text class="music" x="36.47" y="15.13" font-size="4.00" data-pos="580"></text>
  <text class="music" x="38.57" y="15.63" font-size="4.00" data-pos="582"></text>
  <text class="music" x="40.68" y="16.13" font-size="4.00" data-pos="584"></text>
  <text class="music" x="42.78" y="16.63" font-size="4.00" data-pos="586"></text>
  <text class="music" x="44.89" y="17.13" font-size="4.00" data-pos="588"></text>
  <text class="music" x="47.51" y="17.63" font-size="4.00" data-pos="592"></text>
  <text class="music" x="47.51" y="19.63" font-size="4.00" data-pos="592"></text>
  <text class="music" x="49.91" y="16.63" font-size="4.00" data-pos="603"></text>
  <line x1="49.98" y1="16.78" x2="49.98" y2="20.13" stroke="#000000" stroke-width="0.130"/>
  <text class="music" x="52.92" y="16.13" font-size="4.00" data-pos="606"></text>
  <line x1="52.98" y1="16.28" x2="52.98" y2="19.63" stroke="#000000" stroke-width="0.130"/>
  <rect x="19.46" y="15.63" width="0.19" height="4.00" data-pos="544"/>
  <rect x="31.41" y="15.63" width="0.19" height="4.00" data-pos="564"/>
  <rect x="46.82" y="15.63" width="0.19" height="4.00" data-pos="590"/>
  <rect x="55.68" y="15.63" width="0.19" height="4.00" data-pos="608"/>
  <rect x="56.17" y="15.63" width="0.60" height="4.00" data-pos="608"/>
  <polygon points="34.36,17.58 38.70,18.20 38.70,18.68 34.36,18.06"/>
  <line x1="34.43" y1="14.78" x2="34.43" y2="17.83" stroke="#000000" stroke-width="0.130"/>
  <line x1="36.53" y1="15.28" x2="36.53" y2="18.13" stroke="#000000" stroke-width="0.130"/>
  <line x1="38.64" y1="15.78" x2="38.64" y2="18.43" stroke="#000000" stroke-width="0.130"/>
  <polygon points="40.68,19.58 45.02,20.20 45.02,20.68 40.68,20.06"/>
  <line x1="40.74" y1="16.28" x2="40.74" y2="19.83" stroke="#000000" stroke-width="0.130"/>
  <line x1="42.85" y1="16.78" x2="42.85" y2="20.13" stroke="#000000" stroke-width="0.130"/>
  <line x1="44.95" y1="17.28" x2="44.95" y2="20.43" stroke="#000000" stroke-width="0.130"/>
  <rect x="0.30" y="10.77" width="5.41" height="2.60" fill="#FFFFFF" stroke="#000000" stroke-width="0.100" data-pos="613"/>
  <text x="3.01" y="12.97" font-size="2.20" font-weight="bold" text-anchor="middle" data-pos="613">Main</text>
  <text class="music" x="6.51" y="12.97" font-size="1.60" data-pos="0"></text>
  <line x1="7.02" y1="12.97" x2="7.02" y2="11.57" stroke="#000000" stroke-width="0.100" data-pos="0"/>
  <text x="7.61" y="12.97" font-size="1.80" data-pos="0">= 120</text>
  </g>
</svg>
